<svg xmlns="http://www.w3.org/2000/svg" viewBox="0 0 150.99 141.41"><defs><style>.cls-1{fill:#fff;}</style></defs><title>Asset 1</title><g id="Layer_2" data-name="Layer 2"><g id="Layer_1-2" data-name="Layer 1"><path class="cls-1" d="M149.1,105.3q-33.71-50.48-67.43-101c-3.84-5.74-8.39-5.8-12.18-.13Q35.71,54.65,2,105.17c-3.54,5.32-2.52,8.66,3.31,10.83,22.14,8.23,44.31,16.37,66.46,24.59a8.83,8.83,0,0,0,6.33.4q34.4-12.72,68.78-25.49c2.64-1,4-2.85,4.06-4.56A8.53,8.53,0,0,0,149.1,105.3ZM75.55,48.42C88.31,48.46,99,59,98.93,71.5S88.37,94.33,75.43,94.31,52,84,52.05,71.37,62.81,48.37,75.55,48.42Zm41.58,60.52c-5.94,3.93-12.69,5.79-19.58,7.1a122.85,122.85,0,0,1-25.47,2.06c-8.91-.26-20.85-1.29-32.1-5.95-6-2.5-12.7-5.37-12.55-13.19.14-7.46,6.63-10.17,12.48-12.76,2.12-.94,4.4-1.49,6.61-2.21,2.73-.9,3.09,1.56,3.71,3,.87,2-1.19,1.83-2.27,2.16-4.63,1.4-9.22,2.91-13,6.1-2.33,2-3.25,4.26-1,6.89,1.12,1.3,1.84,1.86,3.92.49l.87-.56c2.73-3.22,9.58-5.91,18.67-7.46a29.71,29.71,0,0,0,4.84,2.82,25.7,25.7,0,0,1,2.6,1l.81.35a30.09,30.09,0,0,0,27-4.31c9.21,1.48,16.26,4.11,19.24,7.29l.17.09c1.73.91,2.75,2.84,4.67.4,1.73-2.21,1.79-4.26-.14-6.23-3.5-3.59-8.2-4.9-12.7-6.65-1.28-.5-4.25.49-3.23-2.75.78-2.48,2.37-3.3,5-2.37,4.07,1.47,8.17,2.84,11.76,5.36C125.68,95.41,125.6,103.33,117.13,108.93Z"/></g></g></svg>